<svg xmlns="http://www.w3.org/2000/svg" version="1.1" xmlns:xlink="http://www.w3.org/1999/xlink" xmlns:svgjs="http://svgjs.dev/svgjs" width="2000" height="2000" viewBox="0 0 2000 2000"><g transform="matrix(1,0,0,1,-0.28443113772425477,-0.28443113772459583)"><svg viewBox="0 0 334 334" data-background-color="#ffffff" preserveAspectRatio="xMidYMid meet" height="2000" width="2000" xmlns="http://www.w3.org/2000/svg" xmlns:xlink="http://www.w3.org/1999/xlink"><g id="tight-bounds" transform="matrix(1,0,0,1,0.04749999999998522,0.04750000000001364)"><svg viewBox="0 0 333.90454557049503 333.90454557049503" height="333.90454557049503" width="333.90454557049503"><g><svg></svg></g><g><svg viewBox="0 0 333.90454557049503 333.90454557049503" height="333.90454557049503" width="333.90454557049503"><g><path d="M0 166.952c0-92.205 74.747-166.952 166.952-166.952 92.205 0 166.952 74.747 166.953 166.952 0 92.205-74.747 166.952-166.953 166.953-92.205 0-166.952-74.747-166.952-166.953zM166.952 326.501c88.117 0 159.549-71.433 159.549-159.549 0-88.117-71.433-159.549-159.549-159.549-88.117 0-159.549 71.433-159.549 159.549 0 88.117 71.433 159.549 159.549 159.549z" data-fill-palette-color="tertiary" fill="#000000" stroke="transparent"></path><ellipse rx="160.27418187383762" ry="160.27418187383762" cx="166.95227278524752" cy="166.95227278524752" fill="#000000" stroke="transparent" stroke-width="0" fill-opacity="1" data-fill-palette-color="tertiary"></ellipse></g><g transform="matrix(1,0,0,1,90.749650038798,71.17305217166896)"><svg viewBox="0 0 152.40524549289904 191.55844122715712" height="191.55844122715712" width="152.40524549289904"><g><svg viewBox="0 0 152.40524549289904 191.55844122715712" height="191.55844122715712" width="152.40524549289904"><g><svg viewBox="0 0 213.15844122715714 267.91924781740727" height="191.55844122715712" width="152.40524549289904"><g transform="matrix(1,0,0,1,0,153.1015160213701)"><svg viewBox="0 0 213.15844122715714 114.81773179603717" height="114.81773179603717" width="213.15844122715714"><g id="textblocktransform"><svg viewBox="0 0 213.15844122715714 114.81773179603717" height="114.81773179603717" width="213.15844122715714" id="textblock"><g><svg viewBox="0 0 213.15844122715714 114.81773179603717" height="114.81773179603717" width="213.15844122715714"><g transform="matrix(1,0,0,1,0,0)"><svg width="213.15844122715714" viewBox="0.5 -39.25 102.19 55.05" height="114.81773179603717" data-palette-color="#ffffff"><path d="M51.9-9.6L51.9-9.6Q51.9-6.75 49.85-4.3L49.85-4.3Q46.95-0.8 42.1 0.75L42.1 0.75Q38.5 1.9 35.1 1.9L35.1 1.9Q33.85 1.9 32.65 1.75L32.65 1.75Q24.8 0.75 19.35-1.7L19.35-1.7Q14.4 1.95 8.9 1.95L8.9 1.95Q2.4 1.95 0.85-1.65L0.85-1.65Q0.5-2.5 0.5-3.65 0.5-4.8 1.65-6.1L1.65-6.1Q3.45-8.1 6.65-8.1L6.65-8.1Q8.75-8.1 10.45-7.5 12.15-6.9 14.65-5.55 17.15-4.2 18.35-3.6L18.35-3.6Q20.55-5.75 22.9-9.58 25.25-13.4 27.03-17.07 28.8-20.75 31.55-25.25 34.3-29.75 37.15-32.9L37.15-32.9 40-36.15Q36.05-36.85 31.3-36.85 26.55-36.85 20.85-35.6L20.85-35.6Q13.05-33.95 8.85-28.9L8.85-28.9Q6.3-25.85 6.3-23.1L6.3-23.1Q6.3-19.45 9.85-18.35L9.85-18.35Q11.1-18 12.05-18 13-18 14.25-18.35 15.5-18.7 16.68-19.83 17.85-20.95 18.38-22 18.9-23.05 18.9-23.58 18.9-24.1 19.4-24.1L19.4-24.1Q19.9-24.05 19.95-23.4L19.95-23.4 19.95-23.35Q19.4-19.7 16.05-17.8L16.05-17.8Q14-16.7 11.95-16.7L11.95-16.7 9.35-17.15Q4.05-19 4.05-24.05L4.05-24.05Q4.05-27.5 7.1-30.85L7.1-30.85Q12-36.35 21.5-37.7L21.5-37.7Q26.1-38.35 31.08-38.35 36.05-38.35 41.2-37.25L41.2-37.25Q42.6-38.45 43.65-38.85 44.7-39.25 44.88-39.25 45.05-39.25 45.1-39.2L45.1-39.2Q45.4-39.2 45.23-38.88 45.05-38.55 44.13-37.95 43.2-37.35 43-36.85L43-36.85Q49.8-35.1 52.8-31.85L52.8-31.85Q54.4-30.05 54.4-28.18 54.4-26.3 53.3-24.4L53.3-24.4Q51.85-21.9 48.6-20.63 45.35-19.35 42.05-19.2L42.05-19.2Q45.25-18.2 48-16.4L48-16.4Q51.9-13.85 51.9-9.6ZM34.4 0.5L34.4 0.5Q40 0.5 43.9-2.7L43.9-2.7Q48.15-6.1 48.15-10.05L48.15-10.05Q48.15-14.15 43.8-16.25L43.8-16.25Q42.2-17 39.88-17.73 37.55-18.45 36.13-18.95 34.7-19.45 34.5-19.9L34.5-19.9Q34.5-20.85 35.95-20.9L35.95-20.9Q36.9-20.9 38.85-20.75 40.8-20.6 42.2-20.63 43.6-20.65 45.58-21.63 47.55-22.6 48.95-24.15L48.95-24.15Q51.2-26.65 51.2-28.85L51.2-28.85Q51.2-33.55 42.4-35.6L42.4-35.6Q39.75-31.95 32.9-20.18 26.05-8.4 22.35-4.4L22.35-4.4 20.45-2.6Q26.1-0.25 32.6 0.4L32.6 0.4Q33.55 0.5 34.4 0.5ZM17.25-2.65L17.25-2.65Q11.4-5.45 9.85-6 8.3-6.55 6.78-6.55 5.25-6.55 4.35-5.48 3.45-4.4 3.45-3.53 3.45-2.65 3.85-1.85L3.85-1.85Q4.95 0.4 8.45 0.4L8.45 0.4Q13.2 0.4 17.25-2.65ZM57.65-9.65Q57.6-9.45 57.2-8.28 56.8-7.1 56.52-6.03 56.25-4.95 56.25-3.88 56.25-2.8 56.75-1.88 57.25-0.95 58.35-0.95L58.35-0.95Q60.15-0.95 61.85-3.38 63.55-5.8 65.45-9.55L65.45-9.55Q65.85-10.25 66.2-10.1L66.2-10.1Q66.45-9.9 66.3-9.58 66.15-9.25 65.67-8.18 65.2-7.1 64.97-6.68 64.75-6.25 64.17-5.18 63.6-4.1 63.17-3.58 62.75-3.05 62.02-2.23 61.3-1.4 60.65-1L60.65-1Q58.9 0.1 57.35 0.1 55.8 0.1 54.95-0.58 54.1-1.25 53.92-2.02 53.75-2.8 53.75-3.4 53.75-4 53.8-4.95L53.8-4.95Q53.95-6.55 54.42-8.05 54.9-9.55 54.95-9.75L54.95-9.75Q56.1-13.9 58.22-18.8 60.35-23.7 61.82-26.18 63.3-28.65 64.15-29.55L64.15-29.55Q65.85-31.35 67.5-31.35L67.5-31.35Q68.65-31.35 69.05-29.7L69.05-29.7Q69.1-29.4 69.1-28.95L69.1-28.95Q69.1-27.25 67.9-24.65L67.9-24.65Q63.6-15.1 57.65-9.65L57.65-9.65ZM58.05-11.25Q60.6-13.85 63.1-17.8 65.6-21.75 66.77-24.53 67.95-27.3 67.95-28.3 67.95-29.3 67.6-29.3L67.6-29.3Q67.1-29.3 65.7-27.33 64.3-25.35 61.92-20.23 59.55-15.1 58.05-11.25L58.05-11.25ZM74.6-17.5L74.6-17.5Q78.25-17.5 78.25-12.9L78.25-12.9Q78.25-10.8 77.15-8.4L77.15-8.4Q75.75-5.15 72.95-2.5L72.95-2.5Q73.6-1.25 75.3-1.25L75.3-1.25Q76.65-1.25 77.85-2.6L77.85-2.6Q79.35-4.15 80-5.33 80.65-6.5 80.95-7.05 81.25-7.6 81.72-8.63 82.2-9.65 82.3-9.88 82.4-10.1 82.65-10.1L82.65-10.1Q83.15-10.15 83.15-9.75L83.15-9.75Q83.15-9.6 83.05-9.4L83.05-9.4 82.75-8.7Q82.45-8 82.3-7.7 82.15-7.4 81.77-6.63 81.4-5.85 81.12-5.4 80.85-4.95 80.37-4.2 79.9-3.45 79.52-3 79.15-2.55 78.6-2 78.05-1.45 77.55-1.15L77.55-1.15Q76.3-0.4 75.2-0.4L75.2-0.4Q73.15-0.4 72-1.7L72-1.7Q69.7 0 67.75 0L67.75 0Q64.1 0 64.1-4.6L64.1-4.6Q64.1-6.7 65.2-9.1L65.2-9.1Q66.7-12.6 69.42-15.05 72.15-17.5 74.6-17.5ZM75.15-15.95L75.15-15.95Q73.8-15.95 71.95-14.15 70.1-12.35 68.65-9.25L68.65-9.25Q66.9-5.65 66.9-3.35 66.9-1.05 68.65-1.05L68.65-1.05Q69.9-1.05 71.45-2.4L71.45-2.4Q70.65-3.55 70.65-4.85L70.65-4.85Q70.75-7 72.4-7L72.4-7Q73.05-7 73.47-6.55 73.9-6.1 73.9-5.73 73.9-5.35 73.8-4.95L73.8-4.95Q74.65-6.2 75.75-8.5L75.75-8.5Q77-11.05 77-13.5 77-15.95 75.15-15.95ZM78.79 15.8L78.79 15.8Q74.09 15.8 74.09 11.95L74.09 11.95Q74.09 8.75 78.44 6.2L78.44 6.2Q82.14 4.05 87.89 2.15L87.89 2.15Q90.54 1.3 91.74 0.8L91.74 0.8Q93.04-3 93.04-7.5L93.04-7.5Q93.04-8.4 92.94-8.85L92.94-8.85Q91.54-6 89.09-3L89.09-3Q86.19 0.6 83.34-0.2L83.34-0.2Q80.74-1.3 80.74-4.5L80.74-4.5Q80.74-8.8 85.04-13.95L85.04-13.95Q87.39-16.75 90.54-17.5L90.54-17.5Q91.39-17.75 92.24-17.75L92.24-17.75Q94.49-17.75 96.64-16.25L96.64-16.25Q97.44-15.6 97.44-15.15 97.44-14.7 97.14-14.28 96.84-13.85 96.52-14.18 96.19-14.5 96.09-14.8L96.09-14.8Q95.44-16.65 93.99-16.65L93.99-16.65Q91.34-16.65 88.04-12.95L88.04-12.95Q86.19-10.85 84.84-8.45L84.84-8.45Q83.19-5.45 83.19-3.83 83.19-2.2 84.19-1.65L84.19-1.65Q84.54-1.5 84.89-1.5L84.89-1.5Q86.04-1.5 87.77-3.08 89.49-4.65 90.97-7.08 92.44-9.5 92.84-10.85 93.24-12.2 93.82-12.55 94.39-12.9 95.09-12.95 95.79-13 96.04-13.2L96.04-13.2Q96.44-10.95 96.44-7.93 96.44-4.9 95.39-1.05L95.39-1.05Q97.69-2.7 98.67-4 99.64-5.3 100.22-6.35 100.79-7.4 101.24-8.43 101.69-9.45 101.84-9.75 101.99-10.05 102.34-10.13 102.69-10.2 102.69-9.8L102.69-9.8Q102.69-9.55 102.54-9.2L102.54-9.2Q100.34-4.65 98.87-2.63 97.39-0.6 94.84 0.6L94.84 0.6Q93.64 4 91.37 7.35 89.09 10.7 85.64 13.25 82.19 15.8 78.79 15.8ZM75.14 12.9L75.14 12.9Q75.14 14.8 77.59 14.8L77.59 14.8Q79.04 14.8 80.87 13.95 82.69 13.1 83.89 12.2L83.89 12.2Q85.94 10.55 88.39 7.3L88.39 7.3Q90.24 4.7 91.24 2.25L91.24 2.25 89.49 2.85Q81.69 5.55 78.49 7.65L78.49 7.65Q76.14 9.2 75.39 11.6L75.39 11.6Q75.14 12.35 75.14 12.9Z" opacity="1" transform="matrix(1,0,0,1,0,0)" fill="#ffffff" class="wordmark-text-0" data-fill-palette-color="quaternary" id="text-0"></path></svg></g></svg></g></svg></g></svg></g><g transform="matrix(1,0,0,1,40.71326227438702,0)"><svg viewBox="0 0 131.7319166783831 125.99580516988881" height="125.99580516988881" width="131.7319166783831"><g><svg xmlns="http://www.w3.org/2000/svg" xmlns:xlink="http://www.w3.org/1999/xlink" version="1.1" x="0" y="0" viewBox="0.0012954832893114845 2.355621559127474 99.99870451671069 95.64437844087253" enable-background="new 0 0 100 100" xml:space="preserve" height="125.99580516988881" width="131.7319166783831" class="icon-icon-0" data-fill-palette-color="quaternary" id="icon-0"><g fill="#ffffff" data-fill-palette-color="quaternary"><path d="M57.134 42.331V46.528H100V42.331zM65.289 90.695H91.836V53.13H65.289zM59.863 97.309H97.265V47.407H59.863zM64.375 52.217H92.741V91.602H64.375z" fill="#ffffff" data-fill-palette-color="quaternary"></path><path d="M88.605 27.174H85.943A0.81 0.81 0 0 0 85.134 27.977V30.031C85.134 30.28 85.25 30.532 85.418 30.754V41.727H89.128V32.414C89.287 32.343 89.401 32.192 89.401 31.943V27.977A0.794 0.794 0 0 0 88.605 27.174M87.273 26.761C88.054 26.761 88.054 25.492 87.681 24.56 87.31 23.637 87.273 22.741 87.273 22.741S87.238 23.637 86.866 24.56C86.484 25.492 86.484 26.761 87.273 26.761" fill="#ffffff" data-fill-palette-color="quaternary"></path><g fill="#ffffff" data-fill-palette-color="quaternary"><path d="M47.667 20.638C52.313 17.771 53.746 11.684 50.871 7.03 47.987 2.402 41.904 0.96 37.258 3.84 32.608 6.72 31.179 12.812 34.054 17.453 36.926 22.093 43.022 23.531 47.667 20.638" fill="#ffffff" data-fill-palette-color="quaternary"></path><path d="M66.197 38.352L67.654 38.209 67.228 31.696 65.243 31.686C65.523 29.882 65.56 27.12 64.015 24.436A20 20 0 0 0 62.838 22.652L62.026 24.662 62.299 21.96C60.195 19.351 58.195 18.17 57.899 16.644 57.899 16.644 58.082 18.978 58.737 21.41L60.6 22.537 58.977 22.218C59.204 22.932 59.464 23.637 59.79 24.268 60.957 26.53 60.839 29.394 62.472 31.672L49.898 31.611 36.827 23.695A8.3 8.3 0 0 0 35.137 22.67L34.888 22.52 34.852 22.578A8 8 0 0 0 33.565 22.152C29.052 21.154 24.575 23.993 23.59 28.506L17.822 54.553C17.22 57.287 18.028 60 19.756 62H16.985L8.972 25.688C8.422 23.244 5.995 21.672 3.555 22.213A4.516 4.516 0 0 0 0.112 27.619L0.098 27.602 8.906 67.396C9.163 68.566 9.882 69.673 10.819 70.314L6.159 98H10.987L12.997 85H40V98H45V70.41C45 70.306 45.261 70.183 45.445 70.055L50.171 94.707 58.104 93.501 54.221 60.17A5.22 5.22 0 0 0 49.54 55.76L34.996 54.356 39.293 34.966 46.671 39.429C47.328 39.828 48.081 40.041 48.854 40.041 48.92 40.041 48.987 40.041 49.049 40.037L65.494 38.421 66.021 40.445C66.146 40.929 66.373 41.284 66.549 41.231 66.722 41.177 66.767 40.752 66.648 40.268zM40 81H13.733L15.313 71H40z" fill="#ffffff" data-fill-palette-color="quaternary"></path></g><path d="M82.705 36.949H82.685C82.25 36.949 81.941 36.634 81.833 36.239 81.888 36.19 81.983 36.172 81.983 36.093 81.983 35.964 81.868 35.893 81.753 35.862V35.778C81.868 35.751 81.983 35.68 81.983 35.556S81.868 35.365 81.753 35.334L81.763 35.059H78.87V35.321C78.746 35.347 78.631 35.423 78.631 35.556 78.631 35.685 78.746 35.76 78.87 35.787V35.858C78.746 35.885 78.631 35.96 78.631 36.093 78.631 36.177 78.729 36.199 78.79 36.248 78.684 36.638 78.355 36.949 77.921 36.949H77.902A0.946 0.946 0 0 0 76.962 37.894V40.6C76.962 41.115 77.389 41.541 77.902 41.541H82.704A0.95 0.95 0 0 0 83.652 40.6V37.893A0.946 0.946 0 0 0 82.705 36.949M82.35 40.232H78.259V38.12H82.35z" fill="#ffffff" data-fill-palette-color="quaternary"></path></g></svg></g></svg></g><g></g></svg></g></svg></g></svg></g></svg></g><defs></defs></svg><rect width="333.90454557049503" height="333.90454557049503" fill="none" stroke="none" visibility="hidden"></rect></g></svg></g></svg>